<?xml version="1.0" encoding="UTF-8"?>
<svg version="1.1" xmlns="http://www.w3.org/2000/svg" width="512" height="512">
<path d="M0 0 C1.11116684 -0.00101212 1.11116684 -0.00101212 2.24478149 -0.00204468 C60.86512342 0.081987 117.43117849 20.20249221 162.875 57.25 C163.42575195 57.69778809 163.97650391 58.14557617 164.54394531 58.60693359 C177.90774494 69.56068047 190.30666543 81.55249375 200.875 95.25 C201.66003906 96.2296875 202.44507813 97.209375 203.25390625 98.21875 C221.03663981 120.54973941 234.85938753 146.17637823 243.875 173.25 C244.14747559 174.05920898 244.41995117 174.86841797 244.70068359 175.70214844 C247.93519772 185.45826871 250.47382613 195.3263 252.625 205.375 C252.82375732 206.29128174 253.02251465 207.20756348 253.22729492 208.15161133 C256.49191036 224.16403931 257.25314093 240.13642852 257.1875 256.4375 C257.18476578 257.85257339 257.18476578 257.85257339 257.18197632 259.29623413 C257.13595098 273.46499143 256.6774456 287.31837927 253.875 301.25 C253.69275879 302.1692627 253.51051758 303.08852539 253.32275391 304.03564453 C252.01130891 310.48549973 250.51327558 316.87575416 248.875 323.25 C248.68180176 324.00474609 248.48860352 324.75949219 248.28955078 325.53710938 C238.01059397 364.81140087 216.67590412 404.3362356 187.40698242 432.70483398 C185.65009638 434.42603385 185.65009638 434.42603385 183.4375 437.25 C180.84216874 440.2884366 178.11858874 442.77133369 175.08203125 445.3515625 C172.78910875 447.32388167 170.58842795 449.37659398 168.375 451.4375 C156.82151362 461.81098091 144.11568223 470.25052327 130.76953125 478.11914062 C129.2350815 479.03506475 127.72310472 479.98856815 126.21875 480.953125 C113.05241834 489.39070374 89.94057354 502.58209938 73.875 500.25 C70.37367237 499.01805139 68.50852648 498.06575081 66.23498535 495.13825989 C64.50378078 491.46162563 64.45727276 488.2051934 64.49023438 484.2253418 C64.48217522 483.03384773 64.48217522 483.03384773 64.47395325 481.81828308 C64.46418941 480.09685887 64.46122689 478.37538553 64.46430969 476.65393639 C64.46880732 473.91430384 64.45472692 471.17531081 64.43591309 468.43574524 C64.39915742 462.60300737 64.38545462 456.77033652 64.375 450.9375 C64.36285444 444.21039428 64.34085127 437.48359936 64.29499817 430.75663185 C64.28161619 428.08483125 64.28556693 425.41344276 64.29040527 422.74162292 C64.23637699 405.52548486 62.22797499 389.61057821 51.875 375.25 C51.12081862 374.12779884 50.37076768 373.00281007 49.625 371.875 C49.0475 371.00875 48.47 370.1425 47.875 369.25 C52.78805363 368.25805946 57.70198234 367.27636013 62.62890625 366.35546875 C86.06052807 361.93021961 109.60497762 355.42658232 127.875 339.25 C128.803125 338.43144531 129.73125 337.61289062 130.6875 336.76953125 C145.39285202 322.94241553 153.45742767 305.88358033 158.6875 286.625 C158.88255127 285.91053711 159.07760254 285.19607422 159.27856445 284.45996094 C162.45796752 271.89942548 163.25958686 259.22028881 163.1875 246.3125 C163.18534485 245.61278076 163.1831897 244.91306152 163.18096924 244.19213867 C163.0698029 221.66842489 157.92811357 201.79798096 144.875 183.25 C143.45856086 181.99662172 142.0237122 180.76338129 140.5625 179.5625 C138.8515625 177.74609375 138.8515625 177.74609375 137.875 175.25 C138.08475887 171.24319831 139.12857299 167.39055094 140.0769043 163.50561523 C144.66141338 144.38587244 141.94930663 125.37157628 134.875 107.25 C113.77654996 107.55862094 94.34543706 114.70244212 77.10424805 126.91137695 C66.85807535 134.12814603 66.85807535 134.12814603 61.125 133.1875 C59.0324429 132.57220882 56.95015221 131.92165599 54.875 131.25 C51.68298928 130.4976079 48.47014513 129.86947748 45.25 129.25 C44.36868408 129.07621826 43.48736816 128.90243652 42.5793457 128.72338867 C11.70016221 122.92520909 -20.362022 124.41617552 -50.921875 131.12890625 C-51.83050293 131.32057373 -52.73913086 131.51224121 -53.67529297 131.7097168 C-55.71215873 132.1589478 -57.73067138 132.69043254 -59.7421875 133.2421875 C-64.9600314 133.25423795 -68.24326394 130.63198792 -72.5 127.8125 C-74.28012836 126.6919757 -76.06404881 125.57745488 -77.8515625 124.46875 C-78.73875977 123.91832031 -79.62595703 123.36789063 -80.54003906 122.80078125 C-97.06124406 112.88930655 -113.89386134 107.51181006 -133.125 107.25 C-133.393125 108.466875 -133.66125 109.68375 -133.9375 110.9375 C-134.56620759 113.78464724 -135.21433067 116.6246419 -135.890625 119.4609375 C-140.19645972 137.57077175 -140.33609337 154.360777 -135.25 172.34375 C-135.06895737 176.55299104 -136.82939306 177.99796829 -139.5625 181.125 C-154.06194654 198.6904088 -160.56082595 221.50473323 -160.4375 244.0625 C-160.43331055 245.13419434 -160.42912109 246.20588867 -160.42480469 247.31005859 C-159.95919959 281.05652178 -151.12332004 312.7158323 -127.125 337.25 C-106.77731371 356.99029267 -77.11233422 364.46684634 -49.75 367.85546875 C-47.125 368.25 -47.125 368.25 -45.125 369.25 C-46.5429422 372.38070406 -48.28697287 374.75609017 -50.5 377.375 C-54.82753438 382.87868999 -57.4652855 388.49148569 -58.6796875 395.41015625 C-60.11506324 403.50134963 -60.11506324 403.50134963 -63.25390625 405.828125 C-65.8800908 406.90265547 -68.35712149 407.62316803 -71.125 408.25 C-72.32382813 408.59933594 -73.52265625 408.94867188 -74.7578125 409.30859375 C-89.54183258 412.96678242 -105.10350606 411.25224936 -118.06640625 403.48828125 C-124.74186627 399.01072779 -129.46045048 393.73649014 -134.125 387.25 C-134.82753906 386.2909375 -135.53007812 385.331875 -136.25390625 384.34375 C-137.5997416 382.4997325 -138.93793277 380.65009197 -140.265625 378.79296875 C-147.43525912 368.98743974 -156.11459539 361.35039395 -168.125 358.25 C-173.87751285 357.73734082 -179.59949161 357.40816387 -185.125 359.25 C-185.49026882 362.95421944 -185.49026882 362.95421944 -183.65625 366.05859375 C-182.9859375 366.59613281 -182.315625 367.13367188 -181.625 367.6875 C-180.89152344 368.28820312 -180.15804687 368.88890625 -179.40234375 369.5078125 C-177.35870405 371.0712144 -175.28296669 372.56995431 -173.1875 374.0625 C-160.13159811 383.83533884 -152.86831639 398.44249439 -145.9375 412.8125 C-139.87432996 425.26884933 -131.60120417 432.59773539 -118.59765625 437.44140625 C-103.74240059 442.29928606 -88.23571615 442.00514083 -72.8984375 439.96166992 C-69.27025066 439.47845671 -65.78184632 439.20590841 -62.125 439.25 C-62.04891038 446.56397841 -61.99638336 453.87785466 -61.96020508 461.19213867 C-61.94512239 463.6801332 -61.92465346 466.16810117 -61.89868164 468.65600586 C-61.86227663 472.23297688 -61.84526816 475.80959622 -61.83203125 479.38671875 C-61.81654739 480.49834885 -61.80106354 481.60997894 -61.78511047 482.7552948 C-61.78477058 484.31634697 -61.78477058 484.31634697 -61.78442383 485.90893555 C-61.77443108 487.27794258 -61.77443108 487.27794258 -61.76423645 488.67460632 C-62.374047 493.02787936 -64.77665634 496.45971362 -68.125 499.25 C-76.50756436 502.04418812 -83.77615817 499.75824469 -91.5625 496.3125 C-92.51479492 495.90499512 -93.46708984 495.49749023 -94.44824219 495.07763672 C-97.35089997 493.82406284 -100.2389544 492.54129669 -103.125 491.25 C-104.39851318 490.68949951 -104.39851318 490.68949951 -105.69775391 490.11767578 C-132.1954231 478.39440047 -158.18716422 461.44266461 -178.125 440.25 C-180.59953034 437.75116985 -183.09323485 435.28042924 -185.6328125 432.84765625 C-226.44155701 393.3179918 -253.96089391 330.63729333 -255.28613281 273.66186523 C-255.30565448 272.0441653 -255.31942054 270.42638805 -255.328125 268.80859375 C-255.33518463 267.93174927 -255.34224426 267.05490479 -255.34951782 266.15148926 C-255.58011819 229.06701799 -255.58011819 229.06701799 -252.125 211.25 C-251.93164062 210.23341309 -251.73828125 209.21682617 -251.5390625 208.16943359 C-245.01102127 174.94996451 -232.45064127 142.21186211 -213.125 114.25 C-212.72361816 113.65767578 -212.32223633 113.06535156 -211.90869141 112.45507812 C-205.86914551 103.56678008 -199.21355106 95.31839974 -192.125 87.25 C-191.36316406 86.37601562 -190.60132813 85.50203125 -189.81640625 84.6015625 C-180.96396056 74.59719429 -171.60028248 65.53779702 -161.125 57.25 C-160.3721875 56.61835937 -159.619375 55.98671875 -158.84375 55.3359375 C-114.79867448 18.68198767 -56.83772046 0.04703723 0 0 Z " fill="#FEFEFE" transform="translate(255.125,5.75)"/>
</svg>
