<?xml version="1.0" encoding="UTF-8"?>
<svg version="1.1" xmlns="http://www.w3.org/2000/svg" width="512" height="512">
<path d="M0 0 C4.89765727 3.56916025 6.42843141 7.84021007 8.2421875 13.3828125 C8.52676819 14.21182571 8.81134888 15.04083893 9.10455322 15.89497375 C10.04150615 18.63393324 10.95795189 21.37931885 11.875 24.125 C12.53864071 26.07483217 13.20387152 28.02412377 13.87060547 29.97290039 C15.25004106 34.00898323 16.62265968 38.04728577 17.99023438 42.08740234 C20.68633581 50.0381274 23.45724311 57.96235287 26.23199463 65.88589478 C27.44587093 69.35433204 28.65563568 72.82419844 29.8656311 76.29399109 C35.68183342 92.97018452 41.51956013 109.63886476 47.3550415 126.30831909 C47.57482729 126.93618978 47.79461308 127.56406046 48.02105904 128.21095753 C48.67378834 130.07526225 49.32689779 131.93943386 49.98001099 133.80360413 C50.81787524 136.19845833 51.65359546 138.59406387 52.48703003 140.99046326 C54.34621538 146.32896099 56.22991968 151.65263277 58.21484375 156.94580078 C58.55032227 157.85531998 58.88580078 158.76483917 59.23144531 159.70191956 C59.84272433 161.35358071 60.46714923 163.00047388 61.10839844 164.64073181 C63.3795915 170.83278937 63.49032883 175.54758796 60.80761719 181.76220703 C60.0597998 182.99753174 60.0597998 182.99753174 59.296875 184.2578125 C58.73444092 185.20309814 58.17200684 186.14838379 57.5925293 187.12231445 C56.98449463 188.11320068 56.37645996 189.10408691 55.75 190.125 C55.12971924 191.16164795 54.50943848 192.1982959 53.87036133 193.26635742 C52.57552916 195.42910899 51.27507105 197.58850147 49.96923828 199.74462891 C47.42761784 203.94621172 44.91869468 208.16664502 42.41699219 212.39208984 C41.28255665 214.30769091 40.14401981 216.22087034 39.00097656 218.13134766 C38.48889648 218.99163574 37.97681641 219.85192383 37.44921875 220.73828125 C36.99893311 221.49149658 36.54864746 222.24471191 36.0847168 223.02075195 C34.86565473 225.10532489 34.86565473 225.10532489 34 228 C35.38227904 230.40217481 35.38227904 230.40217481 37.42578125 232.92578125 C41.9196356 238.86642795 46.07375978 244.97949204 50.1875 251.1875 C50.87263672 252.21552734 51.55777344 253.24355469 52.26367188 254.30273438 C53.58964643 256.29743912 54.9063257 258.29836268 56.21240234 260.30615234 C57.30804482 261.95724754 58.44148054 263.58490569 59.63525391 265.16650391 C63.62758648 270.6571662 63.01988927 274.48580081 62 281 C61.2695238 284.99836704 60.41497639 288.96305205 59.53491211 292.9309082 C59.28427002 294.08237839 59.03362793 295.23384857 58.77539062 296.42021179 C58.09097155 299.55927437 57.40159011 302.69719599 56.7099731 305.83467889 C55.97686481 309.1663205 55.25034566 312.49939883 54.52308655 315.83232117 C53.13820536 322.17439643 51.74766503 328.51521647 50.35498577 334.85558337 C48.49697573 343.31571437 46.646882 351.77757529 44.79694676 360.23947501 C43.1611033 367.72198628 41.52330502 375.20405177 39.87850952 382.68460083 C37.36787885 394.10898893 34.87007589 405.53452205 32.48486328 416.98583984 C32.11759964 418.73636903 31.75021919 420.48687372 31.38270569 422.23735046 C30.73727621 425.31311748 30.10685026 428.39137181 29.48631287 431.47224426 C26.90422115 444.00167157 26.90422115 444.00167157 23 449 C13.50739531 453.79999834 -0.0248458 448.93497572 -10.1262207 447.21191406 C-11.83232015 446.92400882 -13.53847301 446.63641994 -15.24467468 446.34912109 C-20.80611801 445.41090887 -26.3659983 444.46361859 -31.92578125 443.515625 C-33.84707715 443.18849829 -35.76837934 442.86140854 -37.68968773 442.53435516 C-45.67804543 441.17394582 -53.66601704 439.8113089 -61.65292072 438.44238663 C-73.0727956 436.48509107 -84.49474801 434.54108365 -95.92004329 432.6156714 C-103.97272846 431.25754374 -112.02281555 429.88467656 -120.07110852 428.50076079 C-124.87177609 427.67565955 -129.67333236 426.8569845 -134.47774696 426.05396271 C-138.99108112 425.29923662 -143.50091465 424.52628578 -148.00872993 423.73928833 C-149.66116323 423.45404593 -151.31474601 423.17537117 -152.96948624 422.90383148 C-155.23208235 422.53150485 -157.48930343 422.13550186 -159.7467804 421.73345947 C-161.01009847 421.51813694 -162.27341654 421.30281441 -163.57501698 421.08096695 C-168.40327504 419.55710906 -171.72331885 417.09889043 -174.40487671 412.69035339 C-174.71132111 411.90203629 -175.0177655 411.11371918 -175.33349609 410.30151367 C-175.69341644 409.40095749 -176.05333679 408.50040131 -176.42416382 407.57255554 C-176.96830429 406.13478508 -176.96830429 406.13478508 -177.5234375 404.66796875 C-177.91447662 403.67622147 -178.30551575 402.68447418 -178.70840454 401.66267395 C-179.94701487 398.5104136 -181.16123494 395.34939888 -182.375 392.1875 C-183.21324853 390.04169386 -184.05307543 387.89650359 -184.89453125 385.75195312 C-186.94801983 380.50829635 -188.98159405 375.25725342 -191 370 C-191.75310959 369.99413376 -192.50621918 369.98826752 -193.28215027 369.98222351 C-200.38870303 369.92425608 -207.49494024 369.85215643 -214.60117626 369.76428509 C-218.25435862 369.71960782 -221.90743015 369.68034623 -225.56079102 369.65356445 C-229.08826179 369.62750455 -232.61530546 369.58708408 -236.14251137 369.53681374 C-238.13927679 369.51207424 -240.13620755 369.50210702 -242.13310242 369.49235535 C-243.96443474 369.46266411 -243.96443474 369.46266411 -245.83276367 369.43237305 C-246.90531906 369.42126999 -247.97787445 369.41016693 -249.08293152 369.39872742 C-253.92772579 368.73650357 -257.13044875 366.0936426 -260.6015625 362.8125 C-261.25125 362.20148438 -261.9009375 361.59046875 -262.5703125 360.9609375 C-263.58738281 359.99027344 -263.58738281 359.99027344 -264.625 359 C-265.68460938 357.99839844 -265.68460938 357.99839844 -266.765625 356.9765625 C-271.81423825 352.18496956 -276.74027689 347.28654475 -281.6328125 342.3359375 C-283.65593513 340.33952276 -285.71146615 338.46535037 -287.875 336.625 C-291.61543247 333.43870567 -295.04803498 329.99119746 -298.5 326.5 C-301.89005591 323.07154618 -305.25194033 319.67739237 -308.9375 316.5625 C-313.51351762 312.686001 -317.64986201 308.3747532 -321.86474609 304.11572266 C-325.41441758 300.54318081 -329.03148977 297.15403123 -332.87890625 293.90234375 C-336.47814366 290.67429841 -339.82668211 287.1922629 -343.22509766 283.75537109 C-346.0475639 280.913276 -348.87583732 278.15009878 -351.9375 275.5625 C-356.5111558 271.68800177 -360.64552287 267.37922528 -364.8581543 263.12231445 C-367.90555156 260.05522745 -370.95916943 257.05924561 -374.25 254.25 C-388.39761891 242.06647569 -388.39761891 242.06647569 -389.3125 236.75 C-388.71652251 229.59827016 -385.36428095 226.04938577 -380.328125 221.3203125 C-377.69631332 218.6973324 -375.29313661 215.92526193 -372.86035156 213.11865234 C-369.90465588 209.75257267 -366.82711305 206.5047708 -363.75 203.25 C-358.34763096 197.51185663 -352.98740086 191.74064591 -347.671875 185.921875 C-344.81122345 182.79356015 -341.9389025 179.6763228 -339.0625 176.5625 C-338.56339111 176.02214111 -338.06428223 175.48178223 -337.55004883 174.92504883 C-336.53879388 173.83035108 -335.52748188 172.73570604 -334.51611328 171.64111328 C-332.00985896 168.92822414 -329.50499554 166.21405141 -327 163.5 C-326.00000676 162.41666043 -325.00000676 161.33332709 -324 160.25 C-323.505 159.71375 -323.01 159.1775 -322.5 158.625 C-294 127.75 -294 127.75 -292.49975586 126.12475586 C-291.50054262 125.04226129 -290.50135638 123.95974179 -289.50219727 122.87719727 C-286.99038165 120.15582492 -284.47808667 117.43489805 -281.96484375 114.71484375 C-281.4642041 114.17255127 -280.96356445 113.63025879 -280.44775391 113.0715332 C-279.44753525 111.98933736 -278.44592467 110.90842619 -277.44287109 109.82885742 C-274.92559063 107.11428107 -272.44367091 104.37738177 -270.01171875 101.5859375 C-269.52646729 101.03623291 -269.04121582 100.48652832 -268.54125977 99.92016602 C-267.20944563 98.40835838 -265.88946178 96.88615236 -264.5703125 95.36328125 C-258.57842603 89.85402394 -251.0716291 90.66171249 -243.3828125 90.5859375 C-241.56437332 90.55688828 -241.56437332 90.55688828 -239.709198 90.5272522 C-235.84786961 90.46760685 -231.98651117 90.42113055 -228.125 90.375 C-225.50259137 90.33680644 -222.88019509 90.29775391 -220.2578125 90.2578125 C-213.83865161 90.16191753 -207.41941591 90.07682595 -201 90 C-200.67506561 89.16767853 -200.67506561 89.16767853 -200.34356689 88.31854248 C-198.08472255 82.53858016 -195.81127291 76.7645201 -193.52929688 70.99365234 C-192.67983929 68.83985589 -191.83410334 66.68458772 -190.9921875 64.52783203 C-189.7806227 61.42605471 -188.55572492 58.3298352 -187.328125 55.234375 C-186.95504211 54.27070007 -186.58195923 53.30702515 -186.1975708 52.31414795 C-185.83749939 51.41351624 -185.47742798 50.51288452 -185.10644531 49.58496094 C-184.79555969 48.79442322 -184.48467407 48.0038855 -184.16436768 47.18939209 C-182.30352856 43.69040589 -180.29293524 41.51836137 -176.58724976 40.03268433 C-175.68237823 39.81162018 -174.77750671 39.59055603 -173.84521484 39.36279297 C-172.80021317 39.1001767 -171.75521149 38.83756042 -170.67854309 38.56698608 C-169.53423325 38.29480255 -168.3899234 38.02261902 -167.2109375 37.7421875 C-165.38999825 37.29125229 -165.38999825 37.29125229 -163.53227234 36.83120728 C-160.1859493 36.00296304 -156.83554325 35.19248551 -153.48414993 34.38504028 C-149.92891817 33.52530462 -146.37768165 32.64936036 -142.82592773 31.77539062 C-135.95456946 30.08739852 -129.07955495 28.41480151 -122.20306492 26.74785233 C-116.55256008 25.37778489 -110.90350843 24.00186431 -105.25537109 22.62207031 C-104.44730263 22.42467066 -103.63923416 22.227271 -102.80667877 22.02388954 C-101.17215512 21.62457908 -99.53763364 21.22525975 -97.90311432 20.82593155 C-87.59444431 18.30801766 -77.28464816 15.79474606 -66.97216797 13.29248047 C-66.23718079 13.1140819 -65.5021936 12.93568333 -64.74493408 12.75187874 C-61.11928316 11.87230158 -57.4930815 10.99510691 -53.86578369 10.12234497 C-47.26010984 8.53110431 -40.66039003 6.92266344 -34.07582569 5.24588776 C-31.04686032 4.47556591 -28.01539406 3.71536467 -24.98370171 2.95585632 C-23.55380103 2.59454899 -22.12515168 2.2282461 -20.69792366 1.85652161 C-6.27172957 -1.89874318 -6.27172957 -1.89874318 0 0 Z M-59 66 C-75.90775431 69.09367334 -92.81533606 72.18828787 -109.72271538 75.28400993 C-117.57385156 76.72152165 -125.425043 78.15873026 -133.27636719 79.59521484 C-140.12295661 80.84787316 -146.96943969 82.10111085 -153.81579792 83.35503209 C-157.43779985 84.01838684 -161.05985285 84.6814597 -164.68203354 85.34383774 C-168.73463853 86.08493752 -172.78700549 86.82733127 -176.83935547 87.56982422 C-178.62284645 87.89566498 -178.62284645 87.89566498 -180.44236755 88.22808838 C-182.62749874 88.62886978 -184.81204408 89.03286461 -186.99586105 89.44074631 C-188.97417719 89.80903174 -190.95424541 90.16804545 -192.93605423 90.51704788 C-193.82986172 90.6808633 -194.7236692 90.84467873 -195.64456177 91.01345825 C-196.80906199 91.22045947 -196.80906199 91.22045947 -197.99708748 91.43164253 C-201.30996979 92.37172423 -202.93294417 94.31968622 -205.0625 96.9375 C-206.30773437 98.42830078 -206.30773437 98.42830078 -207.578125 99.94921875 C-208.37734375 100.95597656 -209.1765625 101.96273437 -210 103 C-211.43733461 104.75013584 -212.87483217 106.50013788 -214.3125 108.25 C-215.40498047 109.60351562 -215.40498047 109.60351562 -216.51953125 110.984375 C-219.44968382 114.54670222 -222.46762878 118.02470796 -225.5 121.5 C-229.23418958 125.78202781 -232.92459276 130.08332047 -236.5 134.5 C-240.61893166 139.58809206 -244.90147334 144.52003823 -249.203125 149.453125 C-252.36479231 153.08756499 -255.46857472 156.75529818 -258.5 160.5 C-262.61893166 165.58809206 -266.90147334 170.52003823 -271.203125 175.453125 C-275.09955317 179.93219664 -278.87704154 184.49234028 -282.609375 189.109375 C-286.11815369 193.3520159 -289.74883836 197.48771407 -293.39648438 201.61132812 C-293.92048828 202.20880859 -294.44449219 202.80628906 -294.984375 203.421875 C-295.44553711 203.94362305 -295.90669922 204.46537109 -296.38183594 205.00292969 C-298.72565041 207.89556734 -300.83604319 210.97046047 -303 214 C-246.57 214 -190.14 214 -132 214 C-122.1 194.2 -122.1 194.2 -112 174 C-108.7 167.73 -105.4 161.46 -102 155 C-99.36294579 149.76201562 -96.73063881 144.52393859 -94.12591553 139.2701416 C-83.91271308 118.67764137 -83.91271308 118.67764137 -78.875 109.25 C-74.62524885 101.27347045 -70.51013391 93.22977873 -66.43731689 85.16174316 C-65.69058457 83.6851346 -64.94105324 82.20993802 -64.18865967 80.73620605 C-63.13490112 78.67041966 -62.09157749 76.59968449 -61.05078125 74.52734375 C-60.72742294 73.89809494 -60.40406464 73.26884613 -60.07090759 72.62052917 C-59.31911007 71.10941654 -58.65082153 69.55727077 -58 68 C-58.33 67.34 -58.66 66.68 -59 66 Z M-17 88 C-17.37869232 88.75960526 -17.75738464 89.51921051 -18.14755249 90.30183411 C-21.76251846 97.5520209 -25.37953911 104.80117838 -28.99872398 112.04926014 C-30.85814628 115.773266 -32.71684297 119.49762988 -34.57373047 123.22290039 C-48.74923711 151.65932123 -48.74923711 151.65932123 -55.16325378 163.71751404 C-60.92723393 174.58275815 -66.46568445 185.56574246 -71.99759293 196.55048466 C-73.78370374 200.09690491 -75.57544043 203.6402369 -77.38012695 207.17724609 C-79.15465366 210.65540473 -80.9154638 214.14018109 -82.66662025 217.63016129 C-83.32966639 218.9458771 -83.99750544 220.25918942 -84.67030907 221.56994247 C-85.60209015 223.38749247 -86.51476423 225.21479971 -87.42651367 227.04248047 C-88.21066902 228.59199905 -88.21066902 228.59199905 -89.01066589 230.17282104 C-90.12712366 233.36327601 -90.04667798 234.82537429 -89 238 C-87.7542427 240.29125102 -86.47508014 242.44109177 -85.0625 244.625 C-84.63646484 245.29595703 -84.21042969 245.96691406 -83.77148438 246.65820312 C-78.50660369 254.88412782 -73.03132234 262.97521928 -67.59570312 271.08886719 C-63.66335884 276.96423192 -59.76344082 282.85001855 -56.0625 288.875 C-49.44534308 299.64580916 -42.41036024 310.15312668 -35.46759033 320.71543884 C-31.97854438 326.02609588 -28.51743871 331.35459878 -25.0625 336.6875 C-20.83239634 343.20057006 -16.59048592 349.70576174 -12.3125 356.1875 C-11.80662354 356.9611792 -11.30074707 357.7348584 -10.77954102 358.53198242 C-10.31217529 359.23685791 -9.84480957 359.9417334 -9.36328125 360.66796875 C-8.95376221 361.28953857 -8.54424316 361.9111084 -8.12231445 362.55151367 C-7.04489995 364.15801685 -7.04489995 364.15801685 -5 365 C-3.95029429 361.12301836 -2.90064421 357.24602168 -1.85107422 353.3690033 C-0.90973886 349.89185868 0.03187033 346.41478835 0.97363281 342.9377594 C3.58221426 333.30529364 6.18624583 323.67162678 8.78271484 314.03588867 C9.83385133 310.13708323 10.88549125 306.23841392 11.9375 302.33984375 C12.32889601 300.88916787 12.32889601 300.88916787 12.72819901 299.40918541 C15.6517503 288.58078522 18.60362723 277.76208261 21.66152954 266.97079468 C23.02228153 262.1678556 24.36652578 257.36036784 25.71014404 252.5526123 C26.31544687 250.40883316 26.93026159 248.26771482 27.55499268 246.1295166 C28.40668789 243.21354316 29.22613892 240.29025641 30.0390625 237.36328125 C30.287771 236.54726944 30.53647949 235.73125763 30.79272461 234.89051819 C32.52177243 228.47026806 31.28820491 224.12637015 29 218 C28.38006042 216.1369497 27.76467762 214.27237832 27.15332031 212.40649414 C26.46346499 210.365413 25.77163457 208.32499866 25.078125 206.28515625 C24.70125046 205.17267517 24.32437592 204.06019409 23.93608093 202.91400146 C22.70948805 199.29611748 21.47995928 195.67924079 20.25 192.0625 C19.82848663 190.82124359 19.40697327 189.57998718 18.97268677 188.30111694 C12.768022 170.03035586 6.49035545 151.7859667 0.10180664 133.57861328 C-0.48943948 131.89356132 -1.08066707 130.20850286 -1.671875 128.5234375 C-1.95486954 127.71701813 -2.23786407 126.91059875 -2.5294342 126.07974243 C-4.4065099 120.7212202 -6.25213331 115.35269033 -8.078125 109.9765625 C-8.31514633 109.28058456 -8.55216766 108.58460663 -8.79637146 107.86753845 C-9.88229967 104.67864719 -10.96302276 101.48833961 -12.03344727 98.29418945 C-12.40010498 97.21613037 -12.7667627 96.13807129 -13.14453125 95.02734375 C-13.61403198 93.63116821 -13.61403198 93.63116821 -14.09301758 92.20678711 C-14.89801966 89.84516598 -14.89801966 89.84516598 -17 88 Z M-303 256 C-302.05456425 257.1111562 -301.10795358 258.22131277 -300.16085815 259.33105469 C-299.63384245 259.94938171 -299.10682674 260.56770874 -298.56384087 261.20477295 C-296.43194381 263.65210589 -294.1759515 265.95377941 -291.8828125 268.25 C-291.42196259 268.71180664 -290.96111267 269.17361328 -290.48629761 269.64941406 C-289.52122562 270.61515943 -288.55491842 271.57967197 -287.58740234 272.54296875 C-286.1313326 273.99369065 -284.68067224 275.44966659 -283.23046875 276.90625 C-282.28157029 277.85448729 -281.33236148 278.80241413 -280.3828125 279.75 C-279.54121582 280.59046875 -278.69961914 281.4309375 -277.83251953 282.296875 C-275.77539532 284.26002612 -273.71818716 286.10247721 -271.55615234 287.93945312 C-265.66284711 293.05975688 -260.23102689 298.6588234 -254.7313385 304.1934967 C-252.68102427 306.25671313 -250.62748134 308.31666812 -248.57312012 310.37585449 C-243.47428534 315.48797449 -238.38093867 320.60555109 -233.28741455 325.72296143 C-228.97224783 330.05793946 -224.65498374 334.39080842 -220.3349762 338.72096252 C-218.32340813 340.73895718 -216.31490405 342.75996659 -214.30651855 344.78112793 C-206.2153575 352.93113976 -206.2153575 352.93113976 -197.62983704 360.5519104 C-196 362 -196 362 -194.61857605 363.66366577 C-190.03580908 369.17587512 -184.61789373 369.44409721 -177.76953125 370.3203125 C-176.43751585 370.51041625 -175.10588944 370.70326048 -173.77461243 370.89846802 C-170.67364872 371.35042151 -167.57109334 371.78890685 -164.46734619 372.22131348 C-158.27123782 373.0935861 -152.08782618 374.04532195 -145.90380859 374.99902344 C-134.72537463 376.72131303 -123.54411618 378.42365766 -112.36042595 380.1114769 C-105.15249799 381.19944255 -97.94523869 382.29159474 -90.73887891 383.38988578 C-84.98647965 384.26619198 -79.23305262 385.13558912 -73.47922707 386.00247574 C-71.04951607 386.36956519 -68.62012865 386.73880305 -66.19107628 387.11022568 C-62.83096554 387.62352286 -59.46976037 388.12892753 -56.1081543 388.63232422 C-54.60704353 388.86437813 -54.60704353 388.86437813 -53.0756073 389.10112 C-52.16685852 389.23556015 -51.25810974 389.37000031 -50.32182312 389.5085144 C-49.53062922 389.62830595 -48.73943533 389.7480975 -47.92426586 389.87151909 C-45.91564126 390.16857364 -45.91564126 390.16857364 -44 389 C-58.95513509 366.19835046 -73.98551261 343.45336095 -89.27734375 320.87585449 C-100.32683116 304.55680959 -111.19378271 288.12151457 -121.98828125 271.6328125 C-122.57914017 270.73204483 -123.16999908 269.83127716 -123.77876282 268.9032135 C-124.88534901 267.21598286 -125.98994166 265.52744248 -127.09220886 263.83738708 C-127.58022476 263.09368362 -128.06824066 262.34998016 -128.57104492 261.58374023 C-128.99431564 260.93622299 -129.41758636 260.28870575 -129.85368347 259.62156677 C-131.03808506 257.84909807 -131.03808506 257.84909807 -133 256 C-136.04576226 255.69975045 -136.04576226 255.69975045 -139.69436646 255.75949097 C-140.39027921 255.75778212 -141.08619196 255.75607327 -141.80319297 255.75431263 C-144.14640498 255.75100563 -146.48933369 255.76204109 -148.83251953 255.77294922 C-150.50767002 255.77351307 -152.182821 255.77319728 -153.85797119 255.77206421 C-158.41560163 255.77148868 -162.97312752 255.7832752 -167.53073359 255.79721212 C-172.29000479 255.8096863 -177.0492782 255.81088736 -181.80856323 255.81326294 C-190.8254251 255.81948748 -199.84223867 255.83591142 -208.85907924 255.85596192 C-219.12252697 255.87829068 -229.38597696 255.88930673 -239.64944291 255.89935279 C-260.76632227 255.92027683 -281.8831581 255.95547167 -303 256 Z " fill="#3FC056" transform="translate(419,31)"/>
</svg>
